# Created by Kenney (www.kenney.nl)

mtllib Chicken.mtl

v 1 0 -0.5
v 1.5 0 -0.5
v 1 1 -0.5
v 2 0.5 -0.5
v 2 1 -0.5
v 1 0 0.5
v 1 1 0.5
v 1.5 0 0.5
v 2 0.5 0.5
v 2 1 0.5
v 0 -1 -1
v 0.5 -1 -1
v 0 0 -1
v 1 -0.5 -1
v 1 0 -1
v 0 -1 1
v 0 0 1
v 0.5 -1 1
v 1 -0.5 1
v 1 0 1
v -1 1 -1
v 0 1 -1
v -1 2 -1
v 0 1.5 -1
v -0.5 2 -1
v 0 1.5 1
v -0.5 2 1
v 0 1 1
v -1 1 1
v -1 2 1
v 0 -1 -0.5
v 0 -1 0.5
v -0.5 -1 -0.5
v -0.5 -1 0.5
v 0 -1.5 -0.5
v 0 -1.5 0.5
v -1 -2 0.5
v -1 -2 -0.5
v -1 1 -0.5
v -1 1 0.5
v -2 1 -0.5
v -2 1 0.5
v -2 0.5 -0.5
v -2 0.5 0.5
v -1 0.5 -0.5
v -1.5 0 -0.5
v -1 0.5 0.5
v -1.5 0 0.5
v -3 1.5 -0.5
v -2 2 -0.5
v -3 1.5 0.5
v -2 2 0.5
v -1 2 0.5
v -1 2 -0.5
v -2 3 -0.5
v -2 3 0.5
v -1 3 -0.5
v -1 3 0.5
v -2 1 1
v -2 1 -1
v -2 2 -1
v -2 2 1
v -1 0 1
v -1 0 -1
v 1 1 -1
v 1 1 1
v -1 -1 1
v -1 -1 -1

vn 0 0 -1
vn 0 0 1
vn -1 0 0
vn 0 -1 0
vn 1 0 0
vn 0.7071068 -0.7071068 0
vn 0 1 0
vn 0.7071068 -0.7071068 0
vn 0.7071068 0.7071068 0
vn -0.8944272 0.4472136 0
vn 0.4472136 -0.8944272 0
vn -0.7071068 -0.7071068 0
vn -0.4472136 0.8944272 0
vn -0.4472136 -0.8944272 0

vt 0.109375 0.625
vt 0.1015625 0.625
vt 0.109375 0.640625
vt 0.09375 0.6328125
vt 0.09375 0.640625
vt 0.640625 0.625
vt 0.640625 0.640625
vt 0.6484375 0.625
vt 0.65625 0.6328125
vt 0.65625 0.640625
vt 0.375 0.625
vt 0.375 0.640625
vt 0.390625 0.625
vt 0.390625 0.640625
vt 0.3515625 0.390625
vt 0.3515625 0.375
vt 0.359375 0.390625
vt 0.359375 0.375
vt 0.875 0.640625
vt 0.875 0.6328125
vt 0.890625 0.640625
vt 0.890625 0.6328125
vt 0.34375 0.375
vt 0.34375 0.390625
vt 0.34375 0.875
vt 0.34375 0.890625
vt 0.359375 0.875
vt 0.359375 0.890625
vt 0.125 0.609375
vt 0.1171875 0.609375
vt 0.125 0.625
vt 0.109375 0.6171875
vt 0.625 0.609375
vt 0.625 0.625
vt 0.6328125 0.609375
vt 0.640625 0.6171875
vt 0.3671875 0.609375
vt 0.3671875 0.625
vt 0.3984375 0.609375
vt 0.3984375 0.625
vt 0.3671875 0.3984375
vt 0.3671875 0.3671875
vt 0.375 0.3984375
vt 0.375 0.3671875
vt 0.8671875 0.625
vt 0.8671875 0.6171875
vt 0.8984375 0.625
vt 0.8984375 0.6171875
vt 0.359375 0.3671875
vt 0.359375 0.3984375
vt 0.359375 0.8671875
vt 0.359375 0.8984375
vt 0.375 0.8671875
vt 0.375 0.8984375
vt 0.140625 0.640625
vt 0.125 0.640625
vt 0.140625 0.65625
vt 0.125 0.6484375
vt 0.1328125 0.65625
vt 0.3828125 0.8671875
vt 0.3828125 0.8984375
vt 0.390625 0.3984375
vt 0.390625 0.3671875
vt 0.609375 0.640625
vt 0.609375 0.65625
vt 0.625 0.640625
vt 0.625 0.6484375
vt 0.6171875 0.65625
vt 0.3671875 0.640625
vt 0.3671875 0.65625
vt 0.3984375 0.640625
vt 0.3984375 0.65625
vt 0.8671875 0.640625
vt 0.8984375 0.640625
vt 0.8671875 0.6484375
vt 0.8984375 0.6484375
vt 0.390625 0.8671875
vt 0.390625 0.8984375
vt 0.375 0.875
vt 0.375 0.890625
vt 0.3828125 0.875
vt 0.3828125 0.890625
vt 0.875 0.609375
vt 0.875 0.6015625
vt 0.890625 0.609375
vt 0.890625 0.6015625
vt 0.609375 0.59375
vt 0.6171875 0.609375
vt 0.625 0.6015625
vt 0.375 0.609375
vt 0.390625 0.609375
vt 0.375 0.59375
vt 0.390625 0.59375
vt 0.140625 0.59375
vt 0.125 0.6015625
vt 0.1328125 0.609375
vt 0.375 0.390625
vt 0.375 0.375
vt 0.390625 0.390625
vt 0.390625 0.375
vt 0.390625 0.875
vt 0.390625 0.890625
vt 0.40625 0.875
vt 0.40625 0.890625
vt 0.375 0.6328125
vt 0.390625 0.6328125
vt 0.3984375 0.375
vt 0.3984375 0.390625
vt 0.40625 0.375
vt 0.40625 0.390625
vt 0.6015625 0.625
vt 0.59375 0.6328125
vt 0.609375 0.6328125
vt 0.59375 0.640625
vt 0.1484375 0.625
vt 0.140625 0.6328125
vt 0.15625 0.6328125
vt 0.15625 0.640625
vt 0.171875 0.6484375
vt 0.15625 0.65625
vt 0.578125 0.6484375
vt 0.59375 0.65625
vt 0.421875 0.875
vt 0.421875 0.890625
vt 0.875 0.65625
vt 0.890625 0.65625
vt 0.421875 0.390625
vt 0.421875 0.375
vt 0.375 0.65625
vt 0.375 0.671875
vt 0.390625 0.65625
vt 0.390625 0.671875
vt 0.15625 0.671875
vt 0.140625 0.671875
vt 0.609375 0.671875
vt 0.59375 0.671875
vt 0.875 0.671875
vt 0.890625 0.671875
vt 0.40625 0.3984375
vt 0.40625 0.3671875
vt 0.8671875 0.65625
vt 0.8984375 0.65625
vt 0.40625 0.8671875
vt 0.40625 0.8984375
vt 0.140625 0.625
vt 0.609375 0.625
vt 0.140625 0.609375
vt 0.609375 0.609375
vt 0.8671875 0.609375
vt 0.8984375 0.609375

usemtl Chicken

f 3/3/1 2/2/1 1/1/1
f 2/2/1 3/3/1 4/4/1
f 4/4/1 3/3/1 5/5/1
f 8/8/2 7/7/2 6/6/2
f 7/7/2 8/8/2 9/9/2
f 7/7/2 9/9/2 10/10/2
f 6/13/3 3/12/3 1/11/3
f 3/12/3 6/13/3 7/14/3
f 6/17/4 2/16/4 8/15/4
f 2/16/4 6/17/4 1/18/4
f 10/21/5 4/20/5 5/19/5
f 4/20/5 10/21/5 9/22/5
f 9/24/6 2/16/6 4/23/6
f 2/16/6 9/24/6 8/15/6
f 3/27/7 10/26/7 5/25/7
f 10/26/7 3/27/7 7/28/7
f 13/31/1 12/30/1 11/29/1
f 12/30/1 13/31/1 14/32/1
f 14/32/1 13/31/1 15/1/1
f 18/35/2 17/34/2 16/33/2
f 17/34/2 18/35/2 19/36/2
f 17/34/2 19/36/2 20/6/2
f 16/39/3 13/38/3 11/37/3
f 13/38/3 16/39/3 17/40/3
f 16/43/4 12/42/4 18/41/4
f 12/42/4 16/43/4 11/44/4
f 20/47/5 14/46/5 15/45/5
f 14/46/5 20/47/5 19/48/5
f 19/50/8 12/42/8 14/49/8
f 12/42/8 19/50/8 18/41/8
f 13/53/7 20/52/7 15/51/7
f 20/52/7 13/53/7 17/54/7
f 23/57/1 22/56/1 21/55/1
f 22/56/1 23/57/1 24/58/1
f 24/58/1 23/57/1 25/59/1
f 25/60/9 26/54/9 24/53/9
f 26/54/9 25/60/9 27/61/9
f 29/62/4 22/44/4 28/43/4
f 22/44/4 29/62/4 21/63/4
f 28/66/2 30/65/2 29/64/2
f 30/65/2 28/66/2 26/67/2
f 30/65/2 26/67/2 27/68/2
f 29/71/3 23/70/3 21/69/3
f 23/70/3 29/71/3 30/72/3
f 24/75/5 28/74/5 22/73/5
f 28/74/5 24/75/5 26/76/5
f 23/77/7 27/61/7 25/60/7
f 27/61/7 23/77/7 30/78/7
f 33/81/7 32/80/7 31/79/7
f 32/80/7 33/81/7 34/82/7
f 32/85/5 35/84/5 31/83/5
f 35/84/5 32/85/5 36/86/5
f 36/89/2 34/88/2 37/87/2
f 34/88/2 36/89/2 32/33/2
f 38/92/10 34/91/10 33/90/10
f 34/91/10 38/92/10 37/93/10
f 33/96/1 35/95/1 38/94/1
f 35/95/1 33/96/1 31/29/1
f 37/99/11 35/98/11 36/97/11
f 35/98/11 37/99/11 38/100/11
f 41/103/7 40/102/7 39/101/7
f 40/102/7 41/103/7 42/104/7
f 44/106/3 41/12/3 43/105/3
f 41/12/3 44/106/3 42/14/3
f 47/99/6 46/107/6 45/100/6
f 46/107/6 47/99/6 48/108/6
f 40/21/5 45/20/5 39/19/5
f 45/20/5 40/21/5 47/22/5
f 48/108/12 43/109/12 46/107/12
f 43/109/12 48/108/12 44/110/12
f 47/113/2 44/112/2 48/111/2
f 44/112/2 47/113/2 42/114/2
f 42/114/2 47/113/2 40/64/2
f 43/117/1 45/116/1 46/115/1
f 45/116/1 43/117/1 41/118/1
f 45/116/1 41/118/1 39/55/1
f 50/120/1 41/118/1 49/119/1
f 52/122/2 51/121/2 42/114/2
f 49/123/13 52/104/13 50/103/13
f 52/104/13 49/123/13 51/124/13
f 52/126/5 41/19/5 50/125/5
f 41/19/5 52/126/5 42/21/5
f 51/127/14 41/109/14 42/110/14
f 41/109/14 51/127/14 49/128/14
f 52/110/4 54/100/4 53/99/4
f 54/100/4 52/110/4 50/109/4
f 52/131/3 55/130/3 50/129/3
f 55/130/3 52/131/3 56/132/3
f 55/133/1 54/57/1 50/120/1
f 54/57/1 55/133/1 57/134/1
f 58/135/2 52/122/2 53/65/2
f 52/122/2 58/135/2 56/136/2
f 58/138/5 54/125/5 57/137/5
f 54/125/5 58/138/5 53/126/5
f 55/103/7 58/102/7 57/101/7
f 58/102/7 55/103/7 56/104/7
f 52/110/4 54/100/4 53/99/4
f 54/100/4 52/110/4 50/109/4
f 52/131/3 55/130/3 50/129/3
f 55/130/3 52/131/3 56/132/3
f 55/133/1 54/57/1 50/120/1
f 54/57/1 55/133/1 57/134/1
f 58/135/2 52/122/2 53/65/2
f 52/122/2 58/135/2 56/136/2
f 58/138/5 54/125/5 57/137/5
f 54/125/5 58/138/5 53/126/5
f 55/103/7 58/102/7 57/101/7
f 58/102/7 55/103/7 56/104/7
f 59/139/4 21/63/4 29/62/4
f 21/63/4 59/139/4 60/140/4
f 59/71/3 61/70/3 60/69/3
f 61/70/3 59/71/3 62/72/3
f 61/120/1 21/55/1 60/118/1
f 21/55/1 61/120/1 23/57/1
f 30/65/2 59/114/2 29/64/2
f 59/114/2 30/65/2 62/122/2
f 30/142/5 21/73/5 23/141/5
f 21/73/5 30/142/5 29/74/5
f 61/143/7 30/78/7 23/77/7
f 30/78/7 61/143/7 62/144/7
f 63/62/4 15/49/4 20/50/4
f 15/49/4 63/62/4 64/63/4
f 63/40/3 21/69/3 64/38/3
f 21/69/3 63/40/3 29/71/3
f 21/55/1 15/1/1 64/145/1
f 15/1/1 21/55/1 65/3/1
f 66/7/2 63/146/2 20/6/2
f 63/146/2 66/7/2 29/64/2
f 66/74/5 15/45/5 65/73/5
f 15/45/5 66/74/5 20/47/5
f 21/77/7 66/52/7 65/51/7
f 66/52/7 21/77/7 29/78/7
f 67/62/4 11/44/4 16/43/4
f 11/44/4 67/62/4 68/63/4
f 67/39/3 64/38/3 68/37/3
f 64/38/3 67/39/3 63/40/3
f 64/145/1 11/29/1 68/147/1
f 11/29/1 64/145/1 13/31/1
f 17/34/2 67/148/2 16/33/2
f 67/148/2 17/34/2 63/146/2
f 17/47/5 11/149/5 13/45/5
f 11/149/5 17/47/5 16/150/5
f 64/77/7 17/54/7 13/53/7
f 17/54/7 64/77/7 63/78/7

