# Created by Kenney (www.kenney.nl)

mtllib ChickenHerderArm.mtl

v 3 3 -1
v 4 3 -1
v 3 4 -1
v 4 3.5 -1
v 3.5 4 -1
v 4 3.5 1
v 3.5 4 1
v 4 3 1
v 3 3 1
v 3 4 1
v 3 0 1
v 3 0 -1
v 2 0 1
v 2 0 -1
v 2 4 -1
v 2 4 1
v 4 0 1
v 4 0 -1
v 4 -1 1
v 4 -1 -1
v 2 -1 1
v 2 -1 -1

vn 0 0 -1
vn 0.7071068 0.7071068 0
vn 0 -1 0
vn 0 0 1
vn -1 0 0
vn 1 0 0
vn 0 1 0

vt 0.1015625 0.6484375
vt 0.09375 0.6484375
vt 0.1015625 0.65625
vt 0.09375 0.6523438
vt 0.09765625 0.65625
vt 0.34375 0.8710938
vt 0.34375 0.8867188
vt 0.3476563 0.8710938
vt 0.3476563 0.8867188
vt 0.34375 0.3867188
vt 0.34375 0.3710938
vt 0.3515625 0.3867188
vt 0.3515625 0.3710938
vt 0.6484375 0.6484375
vt 0.6484375 0.65625
vt 0.65625 0.6484375
vt 0.65625 0.6523438
vt 0.6523438 0.65625
vt 0.3710938 0.6484375
vt 0.3710938 0.65625
vt 0.3867188 0.6484375
vt 0.3867188 0.65625
vt 0.8710938 0.6484375
vt 0.8867188 0.6484375
vt 0.8710938 0.6523438
vt 0.8867188 0.6523438
vt 0.3515625 0.8710938
vt 0.3515625 0.8867188
vt 0.359375 0.3867188
vt 0.359375 0.3710938
vt 0.3710938 0.625
vt 0.3867188 0.625
vt 0.109375 0.625
vt 0.1015625 0.625
vt 0.109375 0.65625
vt 0.6484375 0.625
vt 0.640625 0.625
vt 0.640625 0.65625
vt 0.8710938 0.65625
vt 0.8710938 0.625
vt 0.8867188 0.65625
vt 0.8867188 0.625
vt 0.359375 0.8710938
vt 0.359375 0.8867188
vt 0.09375 0.625
vt 0.65625 0.625
vt 0.3710938 0.6171875
vt 0.3867188 0.6171875
vt 0.109375 0.6171875
vt 0.09375 0.6171875
vt 0.65625 0.6171875
vt 0.640625 0.6171875
vt 0.8710938 0.6171875
vt 0.8867188 0.6171875

usemtl ChickenHerderArm

f 3/3/1 2/2/1 1/1/1
f 2/2/1 3/3/1 4/4/1
f 4/4/1 3/3/1 5/5/1
f 5/8/2 6/7/2 4/6/2
f 6/7/2 5/8/2 7/9/2
f 9/12/3 2/11/3 8/10/3
f 2/11/3 9/12/3 1/13/3
f 8/16/4 10/15/4 9/14/4
f 10/15/4 8/16/4 6/17/4
f 10/15/4 6/17/4 7/18/4
f 9/21/5 3/20/5 1/19/5
f 3/20/5 9/21/5 10/22/5
f 4/25/6 8/24/6 2/23/6
f 8/24/6 4/25/6 6/26/6
f 3/27/7 7/9/7 5/8/7
f 7/9/7 3/27/7 10/28/7
f 13/29/3 12/13/3 11/12/3
f 12/13/3 13/29/3 14/30/3
f 13/32/5 15/20/5 14/31/5
f 15/20/5 13/32/5 16/22/5
f 15/35/1 12/34/1 14/33/1
f 12/34/1 15/35/1 3/3/1
f 10/15/4 13/37/4 11/36/4
f 13/37/4 10/15/4 16/38/4
f 10/41/6 12/40/6 3/39/6
f 12/40/6 10/41/6 11/42/6
f 15/43/7 10/28/7 3/27/7
f 10/28/7 15/43/7 16/44/7
f 11/12/3 18/11/3 17/10/3
f 18/11/3 11/12/3 12/13/3
f 11/32/5 1/19/5 12/31/5
f 1/19/5 11/32/5 9/21/5
f 1/1/1 18/45/1 12/34/1
f 18/45/1 1/1/1 2/2/1
f 8/16/4 11/36/4 17/46/4
f 11/36/4 8/16/4 9/14/4
f 8/24/6 18/40/6 2/23/6
f 18/40/6 8/24/6 17/42/6
f 1/27/7 8/7/7 2/6/7
f 8/7/7 1/27/7 9/28/7
f 21/29/3 20/11/3 19/10/3
f 20/11/3 21/29/3 22/30/3
f 21/48/5 14/31/5 22/47/5
f 14/31/5 21/48/5 13/32/5
f 14/33/1 20/50/1 22/49/1
f 20/50/1 14/33/1 18/45/1
f 17/46/4 21/52/4 19/51/4
f 21/52/4 17/46/4 13/37/4
f 17/42/6 20/53/6 18/40/6
f 20/53/6 17/42/6 19/54/6
f 14/43/7 17/7/7 18/6/7
f 17/7/7 14/43/7 13/44/7

