# Created by Kenney (www.kenney.nl)

mtllib ChickenHerderBody.mtl

v 1 7 -2
v 1 8 -2
v 1 7 2
v 1 8 2
v 2 7 -2
v 2 7 2
v 1 9 -0.5
v 0.5 10 -0.5
v 0 9.5 -0.5
v 0 10 -0.5
v 0.5 10 0.5
v 1 9 0.5
v 0 9.5 0.5
v 0 10 0.5
v 0 8 -1
v 0 9 -1
v 0 8 1
v 0 9 1
v 1 8 -1
v 1 8 1
v 0 9 0.5
v -1 9 0.5
v -1 9 -0.5
v 0 9 -0.5
v -1 7 2
v -2 7 2
v -1 8 2
v -2 7 -2
v -1 7 -2
v -1 8 -2
v -1 8 1
v -1 8 -1
v -1 9 -1
v -1 9 1
v 2 4 2
v 2 4 -2
v -2 4 2
v -2 4 -2
v 2 -1 1.5
v 2 -1 -1.5
v 1 -1 1.5
v 1 -1 -1.5
v 1 4 -1.5
v 1 4 1.5
v 2 4 -1.5
v 2 4 1.5
v 0 -1 1.5
v 0 -1 -1.5
v 0 4 -1.5
v 0 4 1.5
v -2 -1 1.5
v -2 -1 -1.5
v -2 4 -1.5
v -2 4 1.5
v 1 -2 0.5
v 1 -2 -0.5
v -1 -2 0.5
v -1 -2 -0.5
v -1 -1 -0.5
v -1 -1 0.5
v 1 -1 -0.5
v 1 -1 0.5

vn -1 0 0
vn 0 0 -1
vn 0.7071068 0.7071068 0
vn 0 0 1
vn 0 -1 0
vn 0.8944272 0.4472136 0
vn -0.4472136 -0.8944272 0
vn 0 1 0
vn 1 0 0
vn -0.7071068 0.7071068 0
vn -0.7071068 0.7071068 0

vt 0.9375 0.0625
vt 0.6875 0.0625
vt 0.1875 0.0625

usemtl ChickenHerderBody

f 3/1/1 2/1/1 1/1/1
f 2/1/1 3/1/1 4/1/1
f 2/1/2 5/1/2 1/1/2
f 2/1/3 6/1/3 5/1/3
f 6/1/3 2/1/3 4/1/3
f 4/1/4 3/1/4 6/1/4
f 3/1/5 5/1/5 6/1/5
f 5/1/5 3/1/5 1/1/5
f 9/2/2 8/2/2 7/2/2
f 8/2/2 9/2/2 10/2/2
f 11/2/6 7/2/6 8/2/6
f 7/2/6 11/2/6 12/2/6
f 13/2/7 7/2/7 12/2/7
f 7/2/7 13/2/7 9/2/7
f 11/2/4 13/2/4 12/2/4
f 13/2/4 11/2/4 14/2/4
f 13/2/1 10/2/1 9/2/1
f 10/2/1 13/2/1 14/2/1
f 10/2/8 11/2/8 8/2/8
f 11/2/8 10/2/8 14/2/8
f 17/1/1 16/1/1 15/1/1
f 16/1/1 17/1/1 18/1/1
f 16/1/2 19/1/2 15/1/2
f 16/1/3 20/1/3 19/1/3
f 20/1/3 16/1/3 18/1/3
f 18/1/4 17/1/4 20/1/4
f 17/1/5 19/1/5 20/1/5
f 19/1/5 17/1/5 15/1/5
f 14/1/4 22/1/4 21/1/4
f 10/1/2 24/1/2 23/1/2
f 22/1/5 24/1/5 21/1/5
f 24/1/5 22/1/5 23/1/5
f 14/1/9 24/1/9 10/1/9
f 24/1/9 14/1/9 21/1/9
f 22/1/10 10/1/10 23/1/10
f 10/1/10 22/1/10 14/1/10
f 27/1/4 26/1/4 25/1/4
f 30/1/2 29/1/2 28/1/2
f 26/1/5 29/1/5 25/1/5
f 29/1/5 26/1/5 28/1/5
f 27/1/9 29/1/9 30/1/9
f 29/1/9 27/1/9 25/1/9
f 26/1/11 30/1/11 28/1/11
f 30/1/11 26/1/11 27/1/11
f 31/1/5 15/1/5 17/1/5
f 15/1/5 31/1/5 32/1/5
f 31/1/1 33/1/1 32/1/1
f 33/1/1 31/1/1 34/1/1
f 33/1/2 15/1/2 32/1/2
f 15/1/2 33/1/2 16/1/2
f 18/1/4 31/1/4 17/1/4
f 31/1/4 18/1/4 34/1/4
f 18/1/9 15/1/9 16/1/9
f 15/1/9 18/1/9 17/1/9
f 33/1/8 18/1/8 16/1/8
f 18/1/8 33/1/8 34/1/8
f 25/1/5 1/1/5 3/1/5
f 1/1/5 25/1/5 29/1/5
f 25/1/1 30/1/1 29/1/1
f 30/1/1 25/1/1 27/1/1
f 30/1/2 1/1/2 29/1/2
f 1/1/2 30/1/2 2/1/2
f 4/1/4 25/1/4 3/1/4
f 25/1/4 4/1/4 27/1/4
f 4/1/9 1/1/9 2/1/9
f 1/1/9 4/1/9 3/1/9
f 30/1/8 4/1/8 2/1/8
f 4/1/8 30/1/8 27/1/8
f 37/3/5 36/3/5 35/3/5
f 36/3/5 37/3/5 38/3/5
f 37/3/1 28/3/1 38/3/1
f 28/3/1 37/3/1 26/3/1
f 28/3/2 36/3/2 38/3/2
f 36/3/2 28/3/2 5/3/2
f 6/3/4 37/3/4 35/3/4
f 37/3/4 6/3/4 26/3/4
f 6/3/9 36/3/9 5/3/9
f 36/3/9 6/3/9 35/3/9
f 28/3/8 6/3/8 5/3/8
f 6/3/8 28/3/8 26/3/8
f 41/1/5 40/1/5 39/1/5
f 40/1/5 41/1/5 42/1/5
f 41/1/1 43/1/1 42/1/1
f 43/1/1 41/1/1 44/1/1
f 43/1/2 40/1/2 42/1/2
f 40/1/2 43/1/2 45/1/2
f 46/1/4 41/1/4 39/1/4
f 41/1/4 46/1/4 44/1/4
f 46/1/9 40/1/9 45/1/9
f 40/1/9 46/1/9 39/1/9
f 43/1/8 46/1/8 45/1/8
f 46/1/8 43/1/8 44/1/8
f 47/2/5 42/2/5 41/2/5
f 42/2/5 47/2/5 48/2/5
f 47/2/1 49/2/1 48/2/1
f 49/2/1 47/2/1 50/2/1
f 49/2/2 42/2/2 48/2/2
f 42/2/2 49/2/2 43/2/2
f 44/2/4 47/2/4 41/2/4
f 47/2/4 44/2/4 50/2/4
f 44/2/9 42/2/9 43/2/9
f 42/2/9 44/2/9 41/2/9
f 49/2/8 44/2/8 43/2/8
f 44/2/8 49/2/8 50/2/8
f 51/1/5 48/1/5 47/1/5
f 48/1/5 51/1/5 52/1/5
f 51/1/1 53/1/1 52/1/1
f 53/1/1 51/1/1 54/1/1
f 53/1/2 48/1/2 52/1/2
f 48/1/2 53/1/2 49/1/2
f 50/1/4 51/1/4 47/1/4
f 51/1/4 50/1/4 54/1/4
f 50/1/9 48/1/9 49/1/9
f 48/1/9 50/1/9 47/1/9
f 53/1/8 50/1/8 49/1/8
f 50/1/8 53/1/8 54/1/8
f 57/1/5 56/1/5 55/1/5
f 56/1/5 57/1/5 58/1/5
f 57/1/1 59/1/1 58/1/1
f 59/1/1 57/1/1 60/1/1
f 59/1/2 56/1/2 58/1/2
f 56/1/2 59/1/2 61/1/2
f 62/1/4 57/1/4 55/1/4
f 57/1/4 62/1/4 60/1/4
f 62/1/9 56/1/9 61/1/9
f 56/1/9 62/1/9 55/1/9
f 59/1/8 62/1/8 61/1/8
f 62/1/8 59/1/8 60/1/8

