# Created by Kenney (www.kenney.nl)

mtllib ChickenHerderLeg.mtl

v 4.5 -5 0.5
v 4 -4 0.5
v 5 -5 0.5
v 5 -4.5 0.5
v 5 -4.5 -0.5
v 5 -5 -0.5
v 4.5 -5 -0.5
v 4 -4 -0.5
v 4 -6 0.5
v 4 -5 0.5
v 4 -6 -0.5
v 4 -5 -0.5
v 3 -6 1
v 3 -6 -1
v 1 -6 1
v 1 -6 -1
v 1 -1 -1
v 1 -1 1
v 3 -1 -1
v 3 -1 1
v 3 -6 0.5
v 3 -6 -0.5
v 3 -5 -0.5
v 3 -5 0.5

vn 0 0 1
vn 1 0 0
vn 0 -1 0
vn 0.4472136 0.8944272 0
vn 0 0 -1
vn -0.8944272 -0.4472136 0
vn 0.7071068 -0.7071068 0
vn 0 1 0
vn -1 0 0

vt 0.6875 0.0625
vt 0.9375 0.0625

usemtl ChickenHerderLeg

f 3/1/1 2/1/1 1/1/1
f 2/1/1 3/1/1 4/1/1
f 4/1/2 6/1/2 5/1/2
f 6/1/2 4/1/2 3/1/2
f 1/1/3 6/1/3 3/1/3
f 6/1/3 1/1/3 7/1/3
f 5/1/4 2/1/4 4/1/4
f 2/1/4 5/1/4 8/1/4
f 8/1/5 6/1/5 7/1/5
f 6/1/5 8/1/5 5/1/5
f 1/1/6 8/1/6 7/1/6
f 8/1/6 1/1/6 2/1/6
f 10/2/1 9/2/1 3/2/1
f 9/2/7 6/2/7 3/2/7
f 6/2/7 9/2/7 11/2/7
f 12/2/8 3/2/8 6/2/8
f 3/2/8 12/2/8 10/2/8
f 9/2/9 12/2/9 11/2/9
f 12/2/9 9/2/9 10/2/9
f 12/2/5 6/2/5 11/2/5
f 15/2/3 14/2/3 13/2/3
f 14/2/3 15/2/3 16/2/3
f 15/2/9 17/2/9 16/2/9
f 17/2/9 15/2/9 18/2/9
f 17/2/5 14/2/5 16/2/5
f 14/2/5 17/2/5 19/2/5
f 20/2/1 15/2/1 13/2/1
f 15/2/1 20/2/1 18/2/1
f 20/2/2 14/2/2 19/2/2
f 14/2/2 20/2/2 13/2/2
f 17/2/8 20/2/8 19/2/8
f 20/2/8 17/2/8 18/2/8
f 21/2/3 11/2/3 9/2/3
f 11/2/3 21/2/3 22/2/3
f 21/2/9 23/2/9 22/2/9
f 23/2/9 21/2/9 24/2/9
f 23/2/5 11/2/5 22/2/5
f 11/2/5 23/2/5 12/2/5
f 10/2/1 21/2/1 9/2/1
f 21/2/1 10/2/1 24/2/1
f 10/2/2 11/2/2 12/2/2
f 11/2/2 10/2/2 9/2/2
f 23/2/8 10/2/8 12/2/8
f 10/2/8 23/2/8 24/2/8

